<?xml version="1.0" encoding="utf-8"?>
<!-- Generator: Adobe Illustrator 27.4.0, SVG Export Plug-In . SVG Version: 6.00 Build 0)  -->
<svg version="1.1" id="Artwork" xmlns="http://www.w3.org/2000/svg" xmlns:xlink="http://www.w3.org/1999/xlink" x="0px" y="0px"
	 viewBox="0 0 361 361" style="enable-background:new 0 0 361 361;" xml:space="preserve">
<style type="text/css">
	.st0{fill-rule:evenodd;clip-rule:evenodd;fill:#C14F9E;}
	.st1{fill-rule:evenodd;clip-rule:evenodd;fill:#FFFFFF;}
</style>
<g id="Layer_5">
</g>
<g>
	<path class="st0" d="M360,112.6c0-4.3,0-8.6,0-12.9c0-3.6-0.1-7.2-0.2-10.9c-0.2-7.9-0.7-15.8-2.1-23.6c-1.4-7.9-3.8-15.3-7.4-22.5
		c-3.6-7.1-8.3-13.5-13.9-19.1s-12.1-10.3-19.1-13.9c-7.2-3.7-14.6-6-22.5-7.4C287,0.9,279,0.4,271.2,0.2c-3.6-0.1-7.2-0.1-10.9-0.2
		c-4.3,0-8.6,0-12.9,0H112.6c-4.3,0-8.6,0-12.9,0c-3.6,0-7.2,0.1-10.9,0.2C81,0.4,73,0.9,65.2,2.3C57.3,3.7,49.9,6,42.7,9.7
		c-7.1,3.6-13.5,8.3-19.1,13.9S13.3,35.7,9.7,42.7c-3.7,7.2-6,14.6-7.4,22.5C0.9,73,0.4,81,0.2,88.9C0.1,92.5,0,96.1,0,99.7
		c0,4.3,0,8.6,0,12.9v134.8c0,4.3,0,8.6,0,12.9c0,3.6,0.1,7.2,0.2,10.9c0.2,7.9,0.7,15.8,2.1,23.6c1.4,7.9,3.8,15.3,7.4,22.5
		c3.6,7.1,8.3,13.5,13.9,19.1s12.1,10.3,19.1,13.9c7.2,3.7,14.6,6,22.5,7.4c7.8,1.4,15.8,1.9,23.7,2.1c3.6,0.1,7.2,0.1,10.9,0.2
		c4.3,0,8.6,0,12.9,0h134.8c4.3,0,8.6,0,12.9,0c3.6,0,7.2-0.1,10.9-0.2c7.9-0.2,15.9-0.7,23.6-2.1c7.9-1.4,15.3-3.8,22.5-7.4
		c7.1-3.6,13.5-8.3,19.1-13.9s10.3-12.1,13.9-19.1c3.7-7.2,6-14.6,7.4-22.5c1.4-7.8,1.9-15.8,2.1-23.6c0.1-3.6,0.1-7.2,0.2-10.9
		c0-4.3,0-8.6,0-12.9L360,112.6L360,112.6z"/>
</g>
<g id="Glyph_2_">
	<g>
		<path class="st1" d="M254.5,55c-0.9,0.1-8.6,1.5-9.5,1.6L138,78.2l0,0c-2.8,0.6-5,1.6-6.7,3c-2,1.7-3.2,4.1-3.6,6.9
			c-0.1,0.6-0.2,1.8-0.2,3.6c0,0,0,109.3,0,133.9c0,3.1-0.2,6.2-2.4,8.8s-4.7,3.4-7.8,4c-2.3,0.5-4.7,0.9-7,1.4
			c-8.8,1.8-14.6,3-19.8,5c-5,1.9-8.7,4.4-11.7,7.5c-5.9,6.2-8.3,14.5-7.5,22.4c0.7,6.7,3.7,13.1,8.9,17.8c3.5,3.2,7.8,5.6,13,6.7
			c5.3,1.1,11,0.7,19.3-1c4.4-0.9,8.6-2.3,12.5-4.6c3.9-2.3,7.2-5.4,9.9-9.1c2.6-3.8,4.3-7.9,5.2-12.4c1-4.6,1.2-8.7,1.2-13.3v-116
			c0-6.2,1.8-7.9,6.8-9.1c0,0,88.9-17.9,93.1-18.8c5.8-1.1,8.5,0.5,8.5,6.6v79.3c0,3.1,0,6.3-2.2,8.9c-2.1,2.6-4.7,3.4-7.8,4
			c-2.3,0.5-4.7,0.9-7,1.4c-8.8,1.8-14.6,3-19.8,5c-5,1.9-8.7,4.4-11.7,7.5c-5.9,6.2-8.5,14.5-7.7,22.4c0.7,6.7,3.9,13.1,9.1,17.8
			c3.5,3.2,7.9,5.6,13,6.6c5.3,1.1,11,0.7,19.3-1c4.4-0.9,8.6-2.2,12.5-4.5s7.2-5.4,9.9-9.1c2.6-3.8,4.3-7.9,5.2-12.4
			c1-4.6,1-8.7,1-13.3V64.5C263.5,58.3,260.3,54.5,254.5,55z"/>
	</g>
</g>
</svg>
